<mxfile host="Electron" modified="2023-12-24T17:06:27.838Z" agent="Mozilla/5.0 (Macintosh; Intel Mac OS X 10_15_7) AppleWebKit/537.36 (KHTML, like Gecko) draw.io/22.1.11 Chrome/114.0.5735.289 Electron/25.9.8 Safari/537.36" etag="KMWw4d4YNu8qPCGPWEWJ" version="22.1.11" type="device">
  <diagram name="Page-1" id="ISfItd_UwlzVeA8zeIYp">
    <mxGraphModel dx="1140" dy="826" grid="1" gridSize="10" guides="1" tooltips="1" connect="1" arrows="1" fold="1" page="1" pageScale="1" pageWidth="827" pageHeight="1169" math="0" shadow="0">
      <root>
        <mxCell id="0" />
        <mxCell id="1" parent="0" />
        <mxCell id="QOzmOcruar9EDkN9Bk2p-1" value="Mission" style="swimlane;fontStyle=0;childLayout=stackLayout;horizontal=1;startSize=26;horizontalStack=0;resizeParent=1;resizeParentMax=0;resizeLast=0;collapsible=1;marginBottom=0;align=center;fontSize=14;fillColor=#ffe6cc;strokeColor=#d79b00;" vertex="1" parent="1">
          <mxGeometry x="470" y="410" width="160" height="236" as="geometry" />
        </mxCell>
        <mxCell id="QOzmOcruar9EDkN9Bk2p-2" value="mission_uuid&lt;br&gt;" style="text;strokeColor=none;fillColor=none;spacingLeft=4;spacingRight=4;overflow=hidden;rotatable=0;points=[[0,0.5],[1,0.5]];portConstraint=eastwest;fontSize=12;whiteSpace=wrap;html=1;fontStyle=4" vertex="1" parent="QOzmOcruar9EDkN9Bk2p-1">
          <mxGeometry y="26" width="160" height="30" as="geometry" />
        </mxCell>
        <mxCell id="QOzmOcruar9EDkN9Bk2p-3" value="mission_code_name" style="text;strokeColor=none;fillColor=none;spacingLeft=4;spacingRight=4;overflow=hidden;rotatable=0;points=[[0,0.5],[1,0.5]];portConstraint=eastwest;fontSize=12;whiteSpace=wrap;html=1;" vertex="1" parent="QOzmOcruar9EDkN9Bk2p-1">
          <mxGeometry y="56" width="160" height="30" as="geometry" />
        </mxCell>
        <mxCell id="QOzmOcruar9EDkN9Bk2p-4" value="mission_title" style="text;strokeColor=none;fillColor=none;spacingLeft=4;spacingRight=4;overflow=hidden;rotatable=0;points=[[0,0.5],[1,0.5]];portConstraint=eastwest;fontSize=12;whiteSpace=wrap;html=1;" vertex="1" parent="QOzmOcruar9EDkN9Bk2p-1">
          <mxGeometry y="86" width="160" height="30" as="geometry" />
        </mxCell>
        <mxCell id="QOzmOcruar9EDkN9Bk2p-5" value="mission_description" style="text;strokeColor=none;fillColor=none;spacingLeft=4;spacingRight=4;overflow=hidden;rotatable=0;points=[[0,0.5],[1,0.5]];portConstraint=eastwest;fontSize=12;whiteSpace=wrap;html=1;" vertex="1" parent="QOzmOcruar9EDkN9Bk2p-1">
          <mxGeometry y="116" width="160" height="30" as="geometry" />
        </mxCell>
        <mxCell id="QOzmOcruar9EDkN9Bk2p-6" value="mission_country" style="text;strokeColor=none;fillColor=none;spacingLeft=4;spacingRight=4;overflow=hidden;rotatable=0;points=[[0,0.5],[1,0.5]];portConstraint=eastwest;fontSize=12;whiteSpace=wrap;html=1;" vertex="1" parent="QOzmOcruar9EDkN9Bk2p-1">
          <mxGeometry y="146" width="160" height="30" as="geometry" />
        </mxCell>
        <mxCell id="QOzmOcruar9EDkN9Bk2p-7" value="mission_start_date" style="text;strokeColor=none;fillColor=none;spacingLeft=4;spacingRight=4;overflow=hidden;rotatable=0;points=[[0,0.5],[1,0.5]];portConstraint=eastwest;fontSize=12;whiteSpace=wrap;html=1;" vertex="1" parent="QOzmOcruar9EDkN9Bk2p-1">
          <mxGeometry y="176" width="160" height="30" as="geometry" />
        </mxCell>
        <mxCell id="QOzmOcruar9EDkN9Bk2p-8" value="mission_end_date" style="text;strokeColor=none;fillColor=none;spacingLeft=4;spacingRight=4;overflow=hidden;rotatable=0;points=[[0,0.5],[1,0.5]];portConstraint=eastwest;fontSize=12;whiteSpace=wrap;html=1;" vertex="1" parent="QOzmOcruar9EDkN9Bk2p-1">
          <mxGeometry y="206" width="160" height="30" as="geometry" />
        </mxCell>
        <mxCell id="QOzmOcruar9EDkN9Bk2p-9" value="Contact" style="swimlane;fontStyle=0;childLayout=stackLayout;horizontal=1;startSize=26;horizontalStack=0;resizeParent=1;resizeParentMax=0;resizeLast=0;collapsible=1;marginBottom=0;align=center;fontSize=14;fillColor=#ffe6cc;strokeColor=#d79b00;" vertex="1" parent="1">
          <mxGeometry x="870" y="425" width="160" height="206" as="geometry" />
        </mxCell>
        <mxCell id="QOzmOcruar9EDkN9Bk2p-10" value="contact_uuid" style="text;strokeColor=none;fillColor=none;spacingLeft=4;spacingRight=4;overflow=hidden;rotatable=0;points=[[0,0.5],[1,0.5]];portConstraint=eastwest;fontSize=12;whiteSpace=wrap;html=1;fontStyle=4" vertex="1" parent="QOzmOcruar9EDkN9Bk2p-9">
          <mxGeometry y="26" width="160" height="30" as="geometry" />
        </mxCell>
        <mxCell id="QOzmOcruar9EDkN9Bk2p-11" value="contact_code_name" style="text;strokeColor=none;fillColor=none;spacingLeft=4;spacingRight=4;overflow=hidden;rotatable=0;points=[[0,0.5],[1,0.5]];portConstraint=eastwest;fontSize=12;whiteSpace=wrap;html=1;" vertex="1" parent="QOzmOcruar9EDkN9Bk2p-9">
          <mxGeometry y="56" width="160" height="30" as="geometry" />
        </mxCell>
        <mxCell id="QOzmOcruar9EDkN9Bk2p-12" value="contact_firstname" style="text;strokeColor=none;fillColor=none;spacingLeft=4;spacingRight=4;overflow=hidden;rotatable=0;points=[[0,0.5],[1,0.5]];portConstraint=eastwest;fontSize=12;whiteSpace=wrap;html=1;" vertex="1" parent="QOzmOcruar9EDkN9Bk2p-9">
          <mxGeometry y="86" width="160" height="30" as="geometry" />
        </mxCell>
        <mxCell id="QOzmOcruar9EDkN9Bk2p-13" value="contact_lastname" style="text;strokeColor=none;fillColor=none;spacingLeft=4;spacingRight=4;overflow=hidden;rotatable=0;points=[[0,0.5],[1,0.5]];portConstraint=eastwest;fontSize=12;whiteSpace=wrap;html=1;" vertex="1" parent="QOzmOcruar9EDkN9Bk2p-9">
          <mxGeometry y="116" width="160" height="30" as="geometry" />
        </mxCell>
        <mxCell id="QOzmOcruar9EDkN9Bk2p-14" value="contact_birthday" style="text;strokeColor=none;fillColor=none;spacingLeft=4;spacingRight=4;overflow=hidden;rotatable=0;points=[[0,0.5],[1,0.5]];portConstraint=eastwest;fontSize=12;whiteSpace=wrap;html=1;" vertex="1" parent="QOzmOcruar9EDkN9Bk2p-9">
          <mxGeometry y="146" width="160" height="30" as="geometry" />
        </mxCell>
        <mxCell id="QOzmOcruar9EDkN9Bk2p-15" value="contact_nationality" style="text;strokeColor=none;fillColor=none;spacingLeft=4;spacingRight=4;overflow=hidden;rotatable=0;points=[[0,0.5],[1,0.5]];portConstraint=eastwest;fontSize=12;whiteSpace=wrap;html=1;" vertex="1" parent="QOzmOcruar9EDkN9Bk2p-9">
          <mxGeometry y="176" width="160" height="30" as="geometry" />
        </mxCell>
        <mxCell id="QOzmOcruar9EDkN9Bk2p-16" value="Target" style="swimlane;fontStyle=0;childLayout=stackLayout;horizontal=1;startSize=26;horizontalStack=0;resizeParent=1;resizeParentMax=0;resizeLast=0;collapsible=1;marginBottom=0;align=center;fontSize=14;fillColor=#ffe6cc;strokeColor=#d79b00;" vertex="1" parent="1">
          <mxGeometry x="470" y="830" width="160" height="206" as="geometry" />
        </mxCell>
        <mxCell id="QOzmOcruar9EDkN9Bk2p-17" value="target_uuid" style="text;strokeColor=none;fillColor=none;spacingLeft=4;spacingRight=4;overflow=hidden;rotatable=0;points=[[0,0.5],[1,0.5]];portConstraint=eastwest;fontSize=12;whiteSpace=wrap;html=1;fontStyle=4" vertex="1" parent="QOzmOcruar9EDkN9Bk2p-16">
          <mxGeometry y="26" width="160" height="30" as="geometry" />
        </mxCell>
        <mxCell id="QOzmOcruar9EDkN9Bk2p-18" value="target_code_name" style="text;strokeColor=none;fillColor=none;spacingLeft=4;spacingRight=4;overflow=hidden;rotatable=0;points=[[0,0.5],[1,0.5]];portConstraint=eastwest;fontSize=12;whiteSpace=wrap;html=1;" vertex="1" parent="QOzmOcruar9EDkN9Bk2p-16">
          <mxGeometry y="56" width="160" height="30" as="geometry" />
        </mxCell>
        <mxCell id="QOzmOcruar9EDkN9Bk2p-19" value="target_firstname" style="text;strokeColor=none;fillColor=none;spacingLeft=4;spacingRight=4;overflow=hidden;rotatable=0;points=[[0,0.5],[1,0.5]];portConstraint=eastwest;fontSize=12;whiteSpace=wrap;html=1;" vertex="1" parent="QOzmOcruar9EDkN9Bk2p-16">
          <mxGeometry y="86" width="160" height="30" as="geometry" />
        </mxCell>
        <mxCell id="QOzmOcruar9EDkN9Bk2p-20" value="target_lastname" style="text;strokeColor=none;fillColor=none;spacingLeft=4;spacingRight=4;overflow=hidden;rotatable=0;points=[[0,0.5],[1,0.5]];portConstraint=eastwest;fontSize=12;whiteSpace=wrap;html=1;" vertex="1" parent="QOzmOcruar9EDkN9Bk2p-16">
          <mxGeometry y="116" width="160" height="30" as="geometry" />
        </mxCell>
        <mxCell id="QOzmOcruar9EDkN9Bk2p-21" value="target_birthday" style="text;strokeColor=none;fillColor=none;spacingLeft=4;spacingRight=4;overflow=hidden;rotatable=0;points=[[0,0.5],[1,0.5]];portConstraint=eastwest;fontSize=12;whiteSpace=wrap;html=1;" vertex="1" parent="QOzmOcruar9EDkN9Bk2p-16">
          <mxGeometry y="146" width="160" height="30" as="geometry" />
        </mxCell>
        <mxCell id="QOzmOcruar9EDkN9Bk2p-22" value="target_nationality" style="text;strokeColor=none;fillColor=none;spacingLeft=4;spacingRight=4;overflow=hidden;rotatable=0;points=[[0,0.5],[1,0.5]];portConstraint=eastwest;fontSize=12;whiteSpace=wrap;html=1;" vertex="1" parent="QOzmOcruar9EDkN9Bk2p-16">
          <mxGeometry y="176" width="160" height="30" as="geometry" />
        </mxCell>
        <mxCell id="QOzmOcruar9EDkN9Bk2p-23" value="Agent" style="swimlane;fontStyle=0;childLayout=stackLayout;horizontal=1;startSize=26;horizontalStack=0;resizeParent=1;resizeParentMax=0;resizeLast=0;collapsible=1;marginBottom=0;align=center;fontSize=14;fillColor=#ffe6cc;strokeColor=#d79b00;" vertex="1" parent="1">
          <mxGeometry x="470" y="20" width="160" height="206" as="geometry" />
        </mxCell>
        <mxCell id="QOzmOcruar9EDkN9Bk2p-24" value="agent_uuid" style="text;strokeColor=none;fillColor=none;spacingLeft=4;spacingRight=4;overflow=hidden;rotatable=0;points=[[0,0.5],[1,0.5]];portConstraint=eastwest;fontSize=12;whiteSpace=wrap;html=1;fontStyle=4" vertex="1" parent="QOzmOcruar9EDkN9Bk2p-23">
          <mxGeometry y="26" width="160" height="30" as="geometry" />
        </mxCell>
        <mxCell id="QOzmOcruar9EDkN9Bk2p-25" value="agent_code" style="text;strokeColor=none;fillColor=none;spacingLeft=4;spacingRight=4;overflow=hidden;rotatable=0;points=[[0,0.5],[1,0.5]];portConstraint=eastwest;fontSize=12;whiteSpace=wrap;html=1;" vertex="1" parent="QOzmOcruar9EDkN9Bk2p-23">
          <mxGeometry y="56" width="160" height="30" as="geometry" />
        </mxCell>
        <mxCell id="QOzmOcruar9EDkN9Bk2p-26" value="agent_firstname" style="text;strokeColor=none;fillColor=none;spacingLeft=4;spacingRight=4;overflow=hidden;rotatable=0;points=[[0,0.5],[1,0.5]];portConstraint=eastwest;fontSize=12;whiteSpace=wrap;html=1;" vertex="1" parent="QOzmOcruar9EDkN9Bk2p-23">
          <mxGeometry y="86" width="160" height="30" as="geometry" />
        </mxCell>
        <mxCell id="QOzmOcruar9EDkN9Bk2p-27" value="agent_lastname" style="text;strokeColor=none;fillColor=none;spacingLeft=4;spacingRight=4;overflow=hidden;rotatable=0;points=[[0,0.5],[1,0.5]];portConstraint=eastwest;fontSize=12;whiteSpace=wrap;html=1;" vertex="1" parent="QOzmOcruar9EDkN9Bk2p-23">
          <mxGeometry y="116" width="160" height="30" as="geometry" />
        </mxCell>
        <mxCell id="QOzmOcruar9EDkN9Bk2p-28" value="agent_birthday" style="text;strokeColor=none;fillColor=none;spacingLeft=4;spacingRight=4;overflow=hidden;rotatable=0;points=[[0,0.5],[1,0.5]];portConstraint=eastwest;fontSize=12;whiteSpace=wrap;html=1;" vertex="1" parent="QOzmOcruar9EDkN9Bk2p-23">
          <mxGeometry y="146" width="160" height="30" as="geometry" />
        </mxCell>
        <mxCell id="QOzmOcruar9EDkN9Bk2p-29" value="agent_nationality" style="text;strokeColor=none;fillColor=none;spacingLeft=4;spacingRight=4;overflow=hidden;rotatable=0;points=[[0,0.5],[1,0.5]];portConstraint=eastwest;fontSize=12;whiteSpace=wrap;html=1;" vertex="1" parent="QOzmOcruar9EDkN9Bk2p-23">
          <mxGeometry y="176" width="160" height="30" as="geometry" />
        </mxCell>
        <mxCell id="QOzmOcruar9EDkN9Bk2p-30" value="Specialty" style="swimlane;fontStyle=0;childLayout=stackLayout;horizontal=1;startSize=26;horizontalStack=0;resizeParent=1;resizeParentMax=0;resizeLast=0;collapsible=1;marginBottom=0;align=center;fontSize=14;fillColor=#fff2cc;strokeColor=#d6b656;" vertex="1" parent="1">
          <mxGeometry x="920" y="80" width="160" height="86" as="geometry" />
        </mxCell>
        <mxCell id="QOzmOcruar9EDkN9Bk2p-31" value="specialty_id" style="text;strokeColor=none;fillColor=none;spacingLeft=4;spacingRight=4;overflow=hidden;rotatable=0;points=[[0,0.5],[1,0.5]];portConstraint=eastwest;fontSize=12;whiteSpace=wrap;html=1;fontStyle=4" vertex="1" parent="QOzmOcruar9EDkN9Bk2p-30">
          <mxGeometry y="26" width="160" height="30" as="geometry" />
        </mxCell>
        <mxCell id="QOzmOcruar9EDkN9Bk2p-32" value="specialty_name" style="text;strokeColor=none;fillColor=none;spacingLeft=4;spacingRight=4;overflow=hidden;rotatable=0;points=[[0,0.5],[1,0.5]];portConstraint=eastwest;fontSize=12;whiteSpace=wrap;html=1;" vertex="1" parent="QOzmOcruar9EDkN9Bk2p-30">
          <mxGeometry y="56" width="160" height="30" as="geometry" />
        </mxCell>
        <mxCell id="QOzmOcruar9EDkN9Bk2p-38" value="Mission_type" style="swimlane;fontStyle=0;childLayout=stackLayout;horizontal=1;startSize=26;horizontalStack=0;resizeParent=1;resizeParentMax=0;resizeLast=0;collapsible=1;marginBottom=0;align=center;fontSize=14;fillColor=#fff2cc;strokeColor=#d6b656;" vertex="1" parent="1">
          <mxGeometry x="760" y="770" width="160" height="86" as="geometry" />
        </mxCell>
        <mxCell id="QOzmOcruar9EDkN9Bk2p-39" value="mission_type_id" style="text;strokeColor=none;fillColor=none;spacingLeft=4;spacingRight=4;overflow=hidden;rotatable=0;points=[[0,0.5],[1,0.5]];portConstraint=eastwest;fontSize=12;whiteSpace=wrap;html=1;fontStyle=4" vertex="1" parent="QOzmOcruar9EDkN9Bk2p-38">
          <mxGeometry y="26" width="160" height="30" as="geometry" />
        </mxCell>
        <mxCell id="QOzmOcruar9EDkN9Bk2p-40" value="mission_type_name" style="text;strokeColor=none;fillColor=none;spacingLeft=4;spacingRight=4;overflow=hidden;rotatable=0;points=[[0,0.5],[1,0.5]];portConstraint=eastwest;fontSize=12;whiteSpace=wrap;html=1;" vertex="1" parent="QOzmOcruar9EDkN9Bk2p-38">
          <mxGeometry y="56" width="160" height="30" as="geometry" />
        </mxCell>
        <mxCell id="QOzmOcruar9EDkN9Bk2p-42" value="Hideout" style="swimlane;fontStyle=0;childLayout=stackLayout;horizontal=1;startSize=26;horizontalStack=0;resizeParent=1;resizeParentMax=0;resizeLast=0;collapsible=1;marginBottom=0;align=center;fontSize=14;fillColor=#ffe6cc;strokeColor=#d79b00;" vertex="1" parent="1">
          <mxGeometry x="80" y="455" width="160" height="146" as="geometry" />
        </mxCell>
        <mxCell id="QOzmOcruar9EDkN9Bk2p-43" value="hideout_uuid" style="text;strokeColor=none;fillColor=none;spacingLeft=4;spacingRight=4;overflow=hidden;rotatable=0;points=[[0,0.5],[1,0.5]];portConstraint=eastwest;fontSize=12;whiteSpace=wrap;html=1;fontStyle=4" vertex="1" parent="QOzmOcruar9EDkN9Bk2p-42">
          <mxGeometry y="26" width="160" height="30" as="geometry" />
        </mxCell>
        <mxCell id="QOzmOcruar9EDkN9Bk2p-44" value="hideout_code_name" style="text;strokeColor=none;fillColor=none;spacingLeft=4;spacingRight=4;overflow=hidden;rotatable=0;points=[[0,0.5],[1,0.5]];portConstraint=eastwest;fontSize=12;whiteSpace=wrap;html=1;" vertex="1" parent="QOzmOcruar9EDkN9Bk2p-42">
          <mxGeometry y="56" width="160" height="30" as="geometry" />
        </mxCell>
        <mxCell id="QOzmOcruar9EDkN9Bk2p-47" value="hideout_address" style="text;strokeColor=none;fillColor=none;spacingLeft=4;spacingRight=4;overflow=hidden;rotatable=0;points=[[0,0.5],[1,0.5]];portConstraint=eastwest;fontSize=12;whiteSpace=wrap;html=1;" vertex="1" parent="QOzmOcruar9EDkN9Bk2p-42">
          <mxGeometry y="86" width="160" height="30" as="geometry" />
        </mxCell>
        <mxCell id="QOzmOcruar9EDkN9Bk2p-45" value="hideout_country" style="text;strokeColor=none;fillColor=none;spacingLeft=4;spacingRight=4;overflow=hidden;rotatable=0;points=[[0,0.5],[1,0.5]];portConstraint=eastwest;fontSize=12;whiteSpace=wrap;html=1;" vertex="1" parent="QOzmOcruar9EDkN9Bk2p-42">
          <mxGeometry y="116" width="160" height="30" as="geometry" />
        </mxCell>
        <mxCell id="QOzmOcruar9EDkN9Bk2p-48" value="Admin" style="swimlane;fontStyle=0;childLayout=stackLayout;horizontal=1;startSize=26;horizontalStack=0;resizeParent=1;resizeParentMax=0;resizeLast=0;collapsible=1;marginBottom=0;align=center;fontSize=14;fillColor=#dae8fc;strokeColor=#6c8ebf;" vertex="1" parent="1">
          <mxGeometry x="10" y="20" width="160" height="206" as="geometry" />
        </mxCell>
        <mxCell id="QOzmOcruar9EDkN9Bk2p-49" value="admin_uuid" style="text;strokeColor=none;fillColor=none;spacingLeft=4;spacingRight=4;overflow=hidden;rotatable=0;points=[[0,0.5],[1,0.5]];portConstraint=eastwest;fontSize=12;whiteSpace=wrap;html=1;fontStyle=4" vertex="1" parent="QOzmOcruar9EDkN9Bk2p-48">
          <mxGeometry y="26" width="160" height="30" as="geometry" />
        </mxCell>
        <mxCell id="QOzmOcruar9EDkN9Bk2p-50" value="admin_firstname" style="text;strokeColor=none;fillColor=none;spacingLeft=4;spacingRight=4;overflow=hidden;rotatable=0;points=[[0,0.5],[1,0.5]];portConstraint=eastwest;fontSize=12;whiteSpace=wrap;html=1;" vertex="1" parent="QOzmOcruar9EDkN9Bk2p-48">
          <mxGeometry y="56" width="160" height="30" as="geometry" />
        </mxCell>
        <mxCell id="QOzmOcruar9EDkN9Bk2p-52" value="admin_lastname" style="text;strokeColor=none;fillColor=none;spacingLeft=4;spacingRight=4;overflow=hidden;rotatable=0;points=[[0,0.5],[1,0.5]];portConstraint=eastwest;fontSize=12;whiteSpace=wrap;html=1;" vertex="1" parent="QOzmOcruar9EDkN9Bk2p-48">
          <mxGeometry y="86" width="160" height="30" as="geometry" />
        </mxCell>
        <mxCell id="QOzmOcruar9EDkN9Bk2p-53" value="admin_email" style="text;strokeColor=none;fillColor=none;spacingLeft=4;spacingRight=4;overflow=hidden;rotatable=0;points=[[0,0.5],[1,0.5]];portConstraint=eastwest;fontSize=12;whiteSpace=wrap;html=1;" vertex="1" parent="QOzmOcruar9EDkN9Bk2p-48">
          <mxGeometry y="116" width="160" height="30" as="geometry" />
        </mxCell>
        <mxCell id="QOzmOcruar9EDkN9Bk2p-55" value="admin_password" style="text;strokeColor=none;fillColor=none;spacingLeft=4;spacingRight=4;overflow=hidden;rotatable=0;points=[[0,0.5],[1,0.5]];portConstraint=eastwest;fontSize=12;whiteSpace=wrap;html=1;" vertex="1" parent="QOzmOcruar9EDkN9Bk2p-48">
          <mxGeometry y="146" width="160" height="30" as="geometry" />
        </mxCell>
        <mxCell id="QOzmOcruar9EDkN9Bk2p-51" value="admin_creation_date" style="text;strokeColor=none;fillColor=none;spacingLeft=4;spacingRight=4;overflow=hidden;rotatable=0;points=[[0,0.5],[1,0.5]];portConstraint=eastwest;fontSize=12;whiteSpace=wrap;html=1;" vertex="1" parent="QOzmOcruar9EDkN9Bk2p-48">
          <mxGeometry y="176" width="160" height="30" as="geometry" />
        </mxCell>
        <mxCell id="QOzmOcruar9EDkN9Bk2p-34" value="Mission_status" style="swimlane;fontStyle=0;childLayout=stackLayout;horizontal=1;startSize=26;horizontalStack=0;resizeParent=1;resizeParentMax=0;resizeLast=0;collapsible=1;marginBottom=0;align=center;fontSize=14;fillColor=#fff2cc;strokeColor=#d6b656;" vertex="1" parent="1">
          <mxGeometry x="240" y="190" width="160" height="86" as="geometry" />
        </mxCell>
        <mxCell id="QOzmOcruar9EDkN9Bk2p-35" value="mission_status_id" style="text;strokeColor=none;fillColor=none;spacingLeft=4;spacingRight=4;overflow=hidden;rotatable=0;points=[[0,0.5],[1,0.5]];portConstraint=eastwest;fontSize=12;whiteSpace=wrap;html=1;fontStyle=4" vertex="1" parent="QOzmOcruar9EDkN9Bk2p-34">
          <mxGeometry y="26" width="160" height="30" as="geometry" />
        </mxCell>
        <mxCell id="QOzmOcruar9EDkN9Bk2p-36" value="mission_status_name" style="text;strokeColor=none;fillColor=none;spacingLeft=4;spacingRight=4;overflow=hidden;rotatable=0;points=[[0,0.5],[1,0.5]];portConstraint=eastwest;fontSize=12;whiteSpace=wrap;html=1;" vertex="1" parent="QOzmOcruar9EDkN9Bk2p-34">
          <mxGeometry y="56" width="160" height="30" as="geometry" />
        </mxCell>
        <mxCell id="QOzmOcruar9EDkN9Bk2p-56" value="Hideout_type" style="swimlane;fontStyle=0;childLayout=stackLayout;horizontal=1;startSize=26;horizontalStack=0;resizeParent=1;resizeParentMax=0;resizeLast=0;collapsible=1;marginBottom=0;align=center;fontSize=14;fillColor=#fff2cc;strokeColor=#d6b656;" vertex="1" parent="1">
          <mxGeometry x="80" y="770" width="160" height="86" as="geometry" />
        </mxCell>
        <mxCell id="QOzmOcruar9EDkN9Bk2p-57" value="hideout_type_id" style="text;strokeColor=none;fillColor=none;spacingLeft=4;spacingRight=4;overflow=hidden;rotatable=0;points=[[0,0.5],[1,0.5]];portConstraint=eastwest;fontSize=12;whiteSpace=wrap;html=1;fontStyle=4" vertex="1" parent="QOzmOcruar9EDkN9Bk2p-56">
          <mxGeometry y="26" width="160" height="30" as="geometry" />
        </mxCell>
        <mxCell id="QOzmOcruar9EDkN9Bk2p-58" value="hideout_type_name" style="text;strokeColor=none;fillColor=none;spacingLeft=4;spacingRight=4;overflow=hidden;rotatable=0;points=[[0,0.5],[1,0.5]];portConstraint=eastwest;fontSize=12;whiteSpace=wrap;html=1;" vertex="1" parent="QOzmOcruar9EDkN9Bk2p-56">
          <mxGeometry y="56" width="160" height="30" as="geometry" />
        </mxCell>
        <mxCell id="QOzmOcruar9EDkN9Bk2p-78" value="" style="rounded=0;orthogonalLoop=1;jettySize=auto;html=1;endArrow=none;endFill=0;" edge="1" parent="1" source="QOzmOcruar9EDkN9Bk2p-59" target="QOzmOcruar9EDkN9Bk2p-1">
          <mxGeometry relative="1" as="geometry" />
        </mxCell>
        <mxCell id="QOzmOcruar9EDkN9Bk2p-99" value="1,n" style="edgeLabel;html=1;align=center;verticalAlign=middle;resizable=0;points=[];fontSize=14;" vertex="1" connectable="0" parent="QOzmOcruar9EDkN9Bk2p-78">
          <mxGeometry x="-0.123" y="2" relative="1" as="geometry">
            <mxPoint x="18" as="offset" />
          </mxGeometry>
        </mxCell>
        <mxCell id="QOzmOcruar9EDkN9Bk2p-59" value="in charge of" style="ellipse;whiteSpace=wrap;html=1;align=center;fillColor=#ffe6cc;strokeColor=#d79b00;" vertex="1" parent="1">
          <mxGeometry x="500" y="295" width="100" height="40" as="geometry" />
        </mxCell>
        <mxCell id="QOzmOcruar9EDkN9Bk2p-73" value="" style="rounded=0;orthogonalLoop=1;jettySize=auto;html=1;endArrow=none;endFill=0;" edge="1" parent="1" source="QOzmOcruar9EDkN9Bk2p-60" target="QOzmOcruar9EDkN9Bk2p-1">
          <mxGeometry relative="1" as="geometry" />
        </mxCell>
        <mxCell id="QOzmOcruar9EDkN9Bk2p-97" value="1,1" style="edgeLabel;html=1;align=center;verticalAlign=middle;resizable=0;points=[];fontSize=14;" vertex="1" connectable="0" parent="QOzmOcruar9EDkN9Bk2p-73">
          <mxGeometry x="0.2974" relative="1" as="geometry">
            <mxPoint x="31" y="-4" as="offset" />
          </mxGeometry>
        </mxCell>
        <mxCell id="QOzmOcruar9EDkN9Bk2p-74" value="" style="rounded=0;orthogonalLoop=1;jettySize=auto;html=1;endArrow=none;endFill=0;" edge="1" parent="1" source="QOzmOcruar9EDkN9Bk2p-60" target="QOzmOcruar9EDkN9Bk2p-30">
          <mxGeometry relative="1" as="geometry" />
        </mxCell>
        <mxCell id="QOzmOcruar9EDkN9Bk2p-98" value="0,n" style="edgeLabel;html=1;align=center;verticalAlign=middle;resizable=0;points=[];fontSize=14;" vertex="1" connectable="0" parent="QOzmOcruar9EDkN9Bk2p-74">
          <mxGeometry x="0.1277" y="1" relative="1" as="geometry">
            <mxPoint x="20" y="9" as="offset" />
          </mxGeometry>
        </mxCell>
        <mxCell id="QOzmOcruar9EDkN9Bk2p-60" value="require" style="ellipse;whiteSpace=wrap;html=1;align=center;fillColor=#ffe6cc;strokeColor=#d79b00;" vertex="1" parent="1">
          <mxGeometry x="740" y="295" width="100" height="40" as="geometry" />
        </mxCell>
        <mxCell id="QOzmOcruar9EDkN9Bk2p-69" value="" style="rounded=0;orthogonalLoop=1;jettySize=auto;html=1;exitX=0;exitY=0.5;exitDx=0;exitDy=0;endArrow=none;endFill=0;" edge="1" parent="1" source="QOzmOcruar9EDkN9Bk2p-61" target="QOzmOcruar9EDkN9Bk2p-1">
          <mxGeometry relative="1" as="geometry" />
        </mxCell>
        <mxCell id="QOzmOcruar9EDkN9Bk2p-100" value="1,n" style="edgeLabel;html=1;align=center;verticalAlign=middle;resizable=0;points=[];fontSize=14;" vertex="1" connectable="0" parent="QOzmOcruar9EDkN9Bk2p-69">
          <mxGeometry x="0.0794" y="-2" relative="1" as="geometry">
            <mxPoint y="15" as="offset" />
          </mxGeometry>
        </mxCell>
        <mxCell id="QOzmOcruar9EDkN9Bk2p-70" value="" style="rounded=0;orthogonalLoop=1;jettySize=auto;html=1;exitX=1;exitY=0.5;exitDx=0;exitDy=0;endArrow=none;endFill=0;" edge="1" parent="1" source="QOzmOcruar9EDkN9Bk2p-61" target="QOzmOcruar9EDkN9Bk2p-9">
          <mxGeometry relative="1" as="geometry" />
        </mxCell>
        <mxCell id="QOzmOcruar9EDkN9Bk2p-107" value="&lt;font style=&quot;font-size: 14px;&quot;&gt;0,n&lt;/font&gt;" style="edgeLabel;html=1;align=center;verticalAlign=middle;resizable=0;points=[];" vertex="1" connectable="0" parent="QOzmOcruar9EDkN9Bk2p-70">
          <mxGeometry x="0.2063" y="-2" relative="1" as="geometry">
            <mxPoint x="-2" y="11" as="offset" />
          </mxGeometry>
        </mxCell>
        <mxCell id="QOzmOcruar9EDkN9Bk2p-61" value="recommends" style="ellipse;whiteSpace=wrap;html=1;align=center;fillColor=#ffe6cc;strokeColor=#d79b00;" vertex="1" parent="1">
          <mxGeometry x="700" y="508" width="100" height="40" as="geometry" />
        </mxCell>
        <mxCell id="QOzmOcruar9EDkN9Bk2p-62" value="has" style="ellipse;whiteSpace=wrap;html=1;align=center;fillColor=#ffe6cc;strokeColor=#d79b00;" vertex="1" parent="1">
          <mxGeometry x="670" y="670" width="100" height="40" as="geometry" />
        </mxCell>
        <mxCell id="QOzmOcruar9EDkN9Bk2p-88" style="rounded=0;orthogonalLoop=1;jettySize=auto;html=1;endArrow=none;endFill=0;" edge="1" parent="1" source="QOzmOcruar9EDkN9Bk2p-63" target="QOzmOcruar9EDkN9Bk2p-16">
          <mxGeometry relative="1" as="geometry" />
        </mxCell>
        <mxCell id="QOzmOcruar9EDkN9Bk2p-109" value="&lt;font style=&quot;font-size: 14px;&quot;&gt;0,n&lt;/font&gt;" style="edgeLabel;html=1;align=center;verticalAlign=middle;resizable=0;points=[];" vertex="1" connectable="0" parent="QOzmOcruar9EDkN9Bk2p-88">
          <mxGeometry x="-0.0148" y="1" relative="1" as="geometry">
            <mxPoint x="19" as="offset" />
          </mxGeometry>
        </mxCell>
        <mxCell id="QOzmOcruar9EDkN9Bk2p-63" value="concern" style="ellipse;whiteSpace=wrap;html=1;align=center;fillColor=#ffe6cc;strokeColor=#d79b00;" vertex="1" parent="1">
          <mxGeometry x="500" y="730" width="100" height="40" as="geometry" />
        </mxCell>
        <mxCell id="QOzmOcruar9EDkN9Bk2p-86" style="rounded=0;orthogonalLoop=1;jettySize=auto;html=1;endArrow=none;endFill=0;" edge="1" parent="1" source="QOzmOcruar9EDkN9Bk2p-64" target="QOzmOcruar9EDkN9Bk2p-56">
          <mxGeometry relative="1" as="geometry" />
        </mxCell>
        <mxCell id="QOzmOcruar9EDkN9Bk2p-110" value="0,n" style="edgeLabel;html=1;align=center;verticalAlign=middle;resizable=0;points=[];fontSize=14;" vertex="1" connectable="0" parent="QOzmOcruar9EDkN9Bk2p-86">
          <mxGeometry x="-0.0444" y="2" relative="1" as="geometry">
            <mxPoint x="18" as="offset" />
          </mxGeometry>
        </mxCell>
        <mxCell id="QOzmOcruar9EDkN9Bk2p-64" value="has" style="ellipse;whiteSpace=wrap;html=1;align=center;fillColor=#ffe6cc;strokeColor=#d79b00;" vertex="1" parent="1">
          <mxGeometry x="110" y="660" width="100" height="40" as="geometry" />
        </mxCell>
        <mxCell id="QOzmOcruar9EDkN9Bk2p-83" value="0,n" style="rounded=0;orthogonalLoop=1;jettySize=auto;html=1;endArrow=none;endFill=0;fontSize=14;" edge="1" parent="1" source="QOzmOcruar9EDkN9Bk2p-66" target="QOzmOcruar9EDkN9Bk2p-42">
          <mxGeometry x="-0.0811" y="12" relative="1" as="geometry">
            <mxPoint as="offset" />
          </mxGeometry>
        </mxCell>
        <mxCell id="QOzmOcruar9EDkN9Bk2p-66" value="indicates" style="ellipse;whiteSpace=wrap;html=1;align=center;fillColor=#ffe6cc;strokeColor=#d79b00;" vertex="1" parent="1">
          <mxGeometry x="314" y="508" width="100" height="40" as="geometry" />
        </mxCell>
        <mxCell id="QOzmOcruar9EDkN9Bk2p-82" style="rounded=0;orthogonalLoop=1;jettySize=auto;html=1;entryX=0;entryY=0.5;entryDx=0;entryDy=0;endArrow=none;endFill=0;" edge="1" parent="1" source="QOzmOcruar9EDkN9Bk2p-67" target="QOzmOcruar9EDkN9Bk2p-2">
          <mxGeometry relative="1" as="geometry" />
        </mxCell>
        <mxCell id="QOzmOcruar9EDkN9Bk2p-102" value="1,1" style="edgeLabel;html=1;align=center;verticalAlign=middle;resizable=0;points=[];fontSize=14;" vertex="1" connectable="0" parent="QOzmOcruar9EDkN9Bk2p-82">
          <mxGeometry x="-0.3477" y="-1" relative="1" as="geometry">
            <mxPoint x="18" y="-10" as="offset" />
          </mxGeometry>
        </mxCell>
        <mxCell id="QOzmOcruar9EDkN9Bk2p-67" value="is actually" style="ellipse;whiteSpace=wrap;html=1;align=center;fillColor=#ffe6cc;strokeColor=#d79b00;" vertex="1" parent="1">
          <mxGeometry x="350" y="335" width="100" height="40" as="geometry" />
        </mxCell>
        <mxCell id="QOzmOcruar9EDkN9Bk2p-75" value="" style="rounded=0;orthogonalLoop=1;jettySize=auto;html=1;endArrow=none;endFill=0;" edge="1" parent="1" source="QOzmOcruar9EDkN9Bk2p-68" target="QOzmOcruar9EDkN9Bk2p-23">
          <mxGeometry relative="1" as="geometry" />
        </mxCell>
        <mxCell id="QOzmOcruar9EDkN9Bk2p-95" value="1,n" style="edgeLabel;html=1;align=center;verticalAlign=middle;resizable=0;points=[];fontSize=14;" vertex="1" connectable="0" parent="QOzmOcruar9EDkN9Bk2p-75">
          <mxGeometry x="0.1746" relative="1" as="geometry">
            <mxPoint y="13" as="offset" />
          </mxGeometry>
        </mxCell>
        <mxCell id="QOzmOcruar9EDkN9Bk2p-76" value="" style="rounded=0;orthogonalLoop=1;jettySize=auto;html=1;endArrow=none;endFill=0;" edge="1" parent="1" source="QOzmOcruar9EDkN9Bk2p-68" target="QOzmOcruar9EDkN9Bk2p-30">
          <mxGeometry relative="1" as="geometry" />
        </mxCell>
        <mxCell id="QOzmOcruar9EDkN9Bk2p-96" value="&lt;font style=&quot;font-size: 14px;&quot;&gt;0,n&lt;/font&gt;" style="edgeLabel;html=1;align=center;verticalAlign=middle;resizable=0;points=[];" vertex="1" connectable="0" parent="QOzmOcruar9EDkN9Bk2p-76">
          <mxGeometry x="0.2778" y="-1" relative="1" as="geometry">
            <mxPoint x="-7" y="12" as="offset" />
          </mxGeometry>
        </mxCell>
        <mxCell id="QOzmOcruar9EDkN9Bk2p-68" value="is competent in" style="ellipse;whiteSpace=wrap;html=1;align=center;fillColor=#ffe6cc;strokeColor=#d79b00;" vertex="1" parent="1">
          <mxGeometry x="700" y="99.5" width="100" height="47" as="geometry" />
        </mxCell>
        <mxCell id="QOzmOcruar9EDkN9Bk2p-79" style="rounded=0;orthogonalLoop=1;jettySize=auto;html=1;endArrow=none;endFill=0;" edge="1" parent="1" source="QOzmOcruar9EDkN9Bk2p-59" target="QOzmOcruar9EDkN9Bk2p-23">
          <mxGeometry relative="1" as="geometry" />
        </mxCell>
        <mxCell id="QOzmOcruar9EDkN9Bk2p-106" value="0,1" style="edgeLabel;html=1;align=center;verticalAlign=middle;resizable=0;points=[];fontSize=14;" vertex="1" connectable="0" parent="QOzmOcruar9EDkN9Bk2p-79">
          <mxGeometry x="0.3333" relative="1" as="geometry">
            <mxPoint x="20" y="11" as="offset" />
          </mxGeometry>
        </mxCell>
        <mxCell id="QOzmOcruar9EDkN9Bk2p-81" style="rounded=0;orthogonalLoop=1;jettySize=auto;html=1;endArrow=none;endFill=0;" edge="1" parent="1" source="QOzmOcruar9EDkN9Bk2p-67" target="QOzmOcruar9EDkN9Bk2p-34">
          <mxGeometry relative="1" as="geometry" />
        </mxCell>
        <mxCell id="QOzmOcruar9EDkN9Bk2p-111" value="0,n" style="edgeLabel;html=1;align=center;verticalAlign=middle;resizable=0;points=[];fontSize=14;" vertex="1" connectable="0" parent="QOzmOcruar9EDkN9Bk2p-81">
          <mxGeometry x="-0.0559" y="-1" relative="1" as="geometry">
            <mxPoint x="20" as="offset" />
          </mxGeometry>
        </mxCell>
        <mxCell id="QOzmOcruar9EDkN9Bk2p-84" style="rounded=0;orthogonalLoop=1;jettySize=auto;html=1;endArrow=none;endFill=0;" edge="1" parent="1" source="QOzmOcruar9EDkN9Bk2p-66" target="QOzmOcruar9EDkN9Bk2p-1">
          <mxGeometry relative="1" as="geometry" />
        </mxCell>
        <mxCell id="QOzmOcruar9EDkN9Bk2p-103" value="0,n" style="edgeLabel;html=1;align=center;verticalAlign=middle;resizable=0;points=[];fontSize=14;" vertex="1" connectable="0" parent="QOzmOcruar9EDkN9Bk2p-84">
          <mxGeometry x="0.1667" y="-4" relative="1" as="geometry">
            <mxPoint x="-6" y="9" as="offset" />
          </mxGeometry>
        </mxCell>
        <mxCell id="QOzmOcruar9EDkN9Bk2p-85" style="rounded=0;orthogonalLoop=1;jettySize=auto;html=1;endArrow=none;endFill=0;" edge="1" parent="1" source="QOzmOcruar9EDkN9Bk2p-64" target="QOzmOcruar9EDkN9Bk2p-42">
          <mxGeometry relative="1" as="geometry" />
        </mxCell>
        <mxCell id="QOzmOcruar9EDkN9Bk2p-104" value="1,1" style="edgeLabel;html=1;align=center;verticalAlign=middle;resizable=0;points=[];fontSize=14;" vertex="1" connectable="0" parent="QOzmOcruar9EDkN9Bk2p-85">
          <mxGeometry x="0.3522" y="-2" relative="1" as="geometry">
            <mxPoint x="18" y="11" as="offset" />
          </mxGeometry>
        </mxCell>
        <mxCell id="QOzmOcruar9EDkN9Bk2p-90" style="rounded=0;orthogonalLoop=1;jettySize=auto;html=1;endArrow=none;endFill=0;" edge="1" parent="1" source="QOzmOcruar9EDkN9Bk2p-62" target="QOzmOcruar9EDkN9Bk2p-1">
          <mxGeometry relative="1" as="geometry" />
        </mxCell>
        <mxCell id="QOzmOcruar9EDkN9Bk2p-105" value="1,1" style="edgeLabel;html=1;align=center;verticalAlign=middle;resizable=0;points=[];fontSize=14;" vertex="1" connectable="0" parent="QOzmOcruar9EDkN9Bk2p-90">
          <mxGeometry x="-0.2275" y="3" relative="1" as="geometry">
            <mxPoint x="19" y="-2" as="offset" />
          </mxGeometry>
        </mxCell>
        <mxCell id="QOzmOcruar9EDkN9Bk2p-91" style="rounded=0;orthogonalLoop=1;jettySize=auto;html=1;endArrow=none;endFill=0;" edge="1" parent="1" source="QOzmOcruar9EDkN9Bk2p-62" target="QOzmOcruar9EDkN9Bk2p-38">
          <mxGeometry relative="1" as="geometry" />
        </mxCell>
        <mxCell id="QOzmOcruar9EDkN9Bk2p-108" value="0,n" style="edgeLabel;html=1;align=center;verticalAlign=middle;resizable=0;points=[];fontSize=14;" vertex="1" connectable="0" parent="QOzmOcruar9EDkN9Bk2p-91">
          <mxGeometry x="-0.1101" y="-4" relative="1" as="geometry">
            <mxPoint x="28" y="2" as="offset" />
          </mxGeometry>
        </mxCell>
        <mxCell id="QOzmOcruar9EDkN9Bk2p-92" style="rounded=0;orthogonalLoop=1;jettySize=auto;html=1;endArrow=none;endFill=0;" edge="1" parent="1" source="QOzmOcruar9EDkN9Bk2p-63" target="QOzmOcruar9EDkN9Bk2p-1">
          <mxGeometry relative="1" as="geometry">
            <mxPoint x="540" y="660" as="targetPoint" />
          </mxGeometry>
        </mxCell>
        <mxCell id="QOzmOcruar9EDkN9Bk2p-101" value="1,n" style="edgeLabel;html=1;align=center;verticalAlign=middle;resizable=0;points=[];fontSize=14;" vertex="1" connectable="0" parent="QOzmOcruar9EDkN9Bk2p-92">
          <mxGeometry x="0.373" y="-1" relative="1" as="geometry">
            <mxPoint x="19" y="8" as="offset" />
          </mxGeometry>
        </mxCell>
      </root>
    </mxGraphModel>
  </diagram>
</mxfile>
